<svg id="Layer_1" data-name="Layer 1" xmlns="http://www.w3.org/2000/svg" width="100" height="100" viewBox="0 0 100 100"><defs><style>.cls-1{opacity:0.89;}.cls-2{fill:#f58425;}.cls-3{fill:none;stroke:#fff;stroke-miterlimit:10;stroke-width:1.5px;}.cls-4{isolation:isolate;}.cls-5{fill:#fff;}</style></defs><g id="logo"><g id="Group_25" data-name="Group 25" class="cls-1"><path id="Path_1" data-name="Path 1" class="cls-2" d="M49,53.11l0,0,0,0Z"/><path id="Path_2" data-name="Path 2" class="cls-2" d="M52.62,53.65h0v0Z"/><path id="Path_3" data-name="Path 3" class="cls-2" d="M63.88,64.7,55.52,53.4l35.93-3.24a.15.15,0,1,0,0-.3L55.93,46l8.41-11.18s0,0,0-.06a0,0,0,0,0-.07,0L52.37,44.3,49.09,8.79A.1.1,0,0,0,49,8.72a.12.12,0,0,0-.07.07L45.74,44.4l-12-9.62s0,0-.07,0a0,0,0,0,0,0,.07L42.18,46,9.94,50a0,0,0,0,0,0,.05.06.06,0,0,0,0,.06L43.07,54,33.55,65.23s0,0,0,0h0l12.19-9.48L48.88,91a.12.12,0,0,0,.24,0l3.24-35.19L63.8,64.78a.06.06,0,0,0,.08,0A0,0,0,0,0,63.88,64.7ZM49,53.17V53.1l0,0Zm3.56.49v-.07l.07.06Z"/><path id="Path_4" data-name="Path 4" class="cls-2" d="M49,53.13l0,0v0Z"/><path id="Path_5" data-name="Path 5" class="cls-2" d="M49,53.11l0,0,0,0Z"/><path id="Path_6" data-name="Path 6" class="cls-2" d="M52.62,53.65h0v0Z"/></g><g id="Group_31" data-name="Group 31"><circle id="Ellipse_1" data-name="Ellipse 1" class="cls-3" cx="50.3" cy="50" r="43.25"/></g><g id="JEF" class="cls-4"><g class="cls-4"><path class="cls-5" d="M28.77,52.19a9.76,9.76,0,0,1-.86,4.52c-1.06,2-3.09,2.94-6.07,2.94a7.06,7.06,0,0,1-4.41-1.4q-1.83-1.39-1.83-5V51.63h2.92v1.64a4.13,4.13,0,0,0,.84,2.82A3.32,3.32,0,0,0,22,57c1.66,0,2.74-.57,3.25-1.71a10.85,10.85,0,0,0,.47-3.95V36.08h3.08Z"/><path class="cls-5" d="M41.47,36.08H58.12V38.9H44.5v7H57.09v2.65H44.5V56.3H58.36V59H41.47Z"/><path class="cls-5" d="M70.49,36.08H86.41V38.9H73.6v7H84.87V48.6H73.6V59H70.49Z"/></g></g></g></svg>
