<svg xmlns="http://www.w3.org/2000/svg" width="1920" height="1080" viewBox="0 0 1920 1080"><defs><style>.cls-1{fill:#57c8ef;}.cls-2{fill:#3eafe1;}.cls-3,.cls-4,.cls-6,.cls-7{fill:none;stroke:#1b709f;}.cls-3{stroke-linecap:round;}.cls-3,.cls-6,.cls-7{stroke-linejoin:round;}.cls-3,.cls-4,.cls-6{stroke-width:2px;}.cls-4{stroke-miterlimit:10;}.cls-5{fill:#1b709f;}.cls-7{stroke-width:3px;}.cls-8{fill:#f58428;}.cls-9{fill:#fff;}</style></defs><g id="Layer_1" data-name="Layer 1"><rect class="cls-1" x="-1.94" y="1.84" width="1922" height="946"/><polygon class="cls-2" points="-9.94 1078.84 -9.94 793.84 39.06 793.84 39.06 853.84 62.06 853.84 62.06 739.84 113.06 739.84 113.06 821.84 128.06 822.84 128.06 755.84 148.06 754.84 148.06 800.84 171.06 799.84 171.06 669.84 251.06 669.84 251.06 771.84 258.06 771.84 258.06 782.84 269.06 782.84 269.06 580.84 277.06 580.84 277.06 570.84 285.06 570.84 285.06 520.84 290.06 520.84 290.06 505.84 295.06 505.84 295.06 489.84 301.06 489.84 301.06 472.84 305.06 472.84 305.06 453.84 309.06 453.84 309.06 413.84 316.06 413.84 316.06 430.84 322.06 430.84 322.06 459.84 329.06 459.84 329.06 508.84 343.06 508.84 343.06 566.84 351.06 566.84 351.06 600.84 357.06 600.84 353.06 789.84 364.06 789.84 364.06 730.84 371.06 730.84 371.06 712.84 380.06 712.84 380.06 686.84 394.06 686.84 394.06 615.84 434.06 616.84 434.06 699.84 447.06 699.84 447.06 617.84 492.06 619.84 492.06 707.84 497.06 707.84 497.06 718.84 510.06 718.84 510.06 744.84 523.06 744.84 523.06 757.84 536.06 757.84 536.06 554.84 567.06 554.84 567.06 688.84 596.06 688.84 596.06 529.84 620.06 529.84 620.06 609.84 653.06 609.84 653.06 619.84 667.06 619.84 667.06 750.84 687.06 769.84 687.06 604.84 727.06 604.84 727.06 758.84 737.06 758.84 737.06 735.84 746.06 735.84 746.06 463.84 752.06 463.84 752.06 410.84 758.06 410.84 758.06 391.84 765.06 391.84 765.06 381.84 773.06 381.84 773.06 370.84 783.06 370.84 783.06 294.84 792.06 294.84 792.06 265.84 798.06 265.84 798.06 293.84 809.06 293.84 809.06 367.84 818.06 367.84 818.06 383.84 827.06 383.84 827.06 393.84 835.06 393.84 835.06 412.84 843.06 412.84 843.06 466.84 851.06 466.84 851.06 778.84 855.06 778.84 855.06 735.84 862.06 735.84 862.06 636.84 897.06 636.84 897.06 609.84 935.06 609.84 935.06 663.84 963.06 663.84 963.06 729.84 985.06 729.84 985.06 683.84 991.06 683.84 991.06 659.84 1037.06 659.84 1037.06 793.84 1046.06 793.84 1046.06 754.84 1054.06 735.84 1063.06 753.84 1063.06 803.84 1075.06 803.84 1075.06 774.84 1084.06 774.84 1084.06 742.84 1100.06 742.84 1100.06 693.84 1112.06 693.84 1112.06 705.84 1127.06 705.84 1127.06 689.84 1144.06 689.84 1144.06 700.84 1181.06 700.84 1181.06 685.84 1196.06 685.84 1196.06 742.84 1214.06 742.84 1214.06 724.84 1220.06 724.84 1220.06 743.84 1228.06 743.84 1228.06 682.84 1239.06 682.84 1239.06 653.84 1305.06 653.84 1305.06 803.84 1311.06 803.84 1311.06 745.84 1315.06 745.84 1315.06 714.84 1319.06 714.84 1319.06 673.84 1325.06 673.84 1325.06 713.84 1332.06 713.84 1332.06 802.84 1345.06 802.84 1345.06 775.84 1353.06 775.84 1353.06 782.84 1358.06 782.84 1358.06 788.84 1376.06 788.84 1376.06 802.84 1384.06 802.84 1384.06 745.84 1404.06 745.84 1404.06 676.84 1453.06 676.84 1453.06 688.84 1462.06 688.84 1462.06 720.84 1474.06 720.84 1474.06 708.84 1517.06 708.84 1517.06 673.84 1521.06 673.84 1521.06 623.84 1546.06 623.84 1546.06 669.84 1561.06 669.84 1561.06 818.84 1573.06 818.84 1573.06 788.84 1581.06 788.84 1581.06 726.84 1587.06 726.84 1587.06 698.84 1605.06 680.84 1612.06 687.84 1618.06 687.84 1618.06 283.84 1643.06 283.84 1643.06 276.84 1617.06 276.84 1617.06 265.84 1643.06 265.84 1650.06 102.84 1656.06 265.84 1683.06 265.84 1683.06 275.84 1657.06 275.84 1657.06 283.84 1683.06 283.84 1683.06 707.84 1704.06 707.84 1704.06 478.84 1750.06 440.84 1790.06 480.84 1790.06 741.84 1811.06 741.84 1811.06 449.84 1863.06 449.84 1863.06 810.84 1881.06 810.84 1881.06 673.84 1920.06 673.84 1920.06 1085.84 -9.94 1078.84"/><polyline class="cls-3" points="-213.93 492.63 -187.13 480.84 -30.63 540.86 -12.41 540.86 77.64 564.45 121.58 582.67 186.97 588.03 280.23 618.04 309.17 625.55 360.63 633.05 379.92 633.05 424.94 623.4 436.47 613.27 487.12 568.73 532.14 606.25 561.08 600.89 579.3 597.68 615.75 567.66 744.38 590.17 772.25 610.54 913.75 650.2 1013.43 698.44 1097.05 748.82 1204.24 864.59 1392.9 1084.34 -345.78 1084.34 -345.78 593.39"/><polyline class="cls-3" points="-30.63 540.86 -5.98 551.58 -0.62 560.16 18.68 560.16 28.33 568.73 41.19 564.45 47.62 576.24 78.71 578.38 72.89 563.21"/><polyline class="cls-3" points="121.58 582.67 141.95 592.32 167.68 592.32 173.04 604.11 190.19 609.47 195.55 619.12 209.48 619.12 224.49 633.05 264.15 633.05 274.87 645.91 293.09 658.78 304.88 655.56 299.53 642.7 280.23 618.04"/><polyline class="cls-3" points="304.88 624.43 308.1 636.27 316.68 643.77 326.32 648.06 326.32 640.55 317.75 633.05 331.68 633.05 344.55 641.63 362.77 642.7 360.63 633.05"/><polyline class="cls-3" points="379.92 633.05 373.49 639.48 376.7 651.27 387.42 654.49 401.36 668.42 408.86 698.44 438.88 719.88 444.24 708.09 434.59 700.58 435.66 690.93 444.24 690.93 439.95 679.14 429.23 679.14 430.3 668.42 438.88 667.35 444.24 677 452.81 677 452.81 658.78 442.09 648.06 434.59 643.77 435.66 628.76 452.81 631.98 474.25 658.78 509.63 658.78 521.42 677 529.99 674.86 523.56 656.63 504.26 640.55 504.26 631.98 512.84 628.76 518.2 636.27 532.14 640.55 540.71 664.14 556.79 682.36 568.58 689.86 565.37 710.23 591.09 708.09 591.09 700.58 575.01 686.65 579.3 679.14 582.52 664.14 570.73 660.92 569.65 643.77 554.65 639.48 553.58 628.76 540.71 624.48 549.29 614.83 567.51 611.61 573.94 615.9 582.52 609.47 591.09 619.12 597.52 612.68 590.02 598.75 579.3 597.68"/><polyline class="cls-3" points="436.73 613.76 458.17 614.83 458.17 598.75 468.03 585.52 473.18 593.39 466.75 603.04 471.04 609.47 478.54 609.47 493.55 593.39 506.41 605.18 503.19 622.33 513.91 622.33 517.13 609.47 542.86 610.54 561.08 600.89"/><polyline class="cls-3" points="608.18 573.9 614.67 579.45 628.61 581.6 621.11 570.88 611.84 570.88"/><polygon class="cls-3" points="601.81 595.53 615.75 595.53 617.89 615.9 624.32 612.68 627.54 590.17 633.97 585.88 654.34 600.89 656.48 609.47 670.42 609.47 670.42 604.11 675.77 604.11 675.77 611.61 695.07 610.54 699.36 622.33 705.79 624.48 705.79 653.42 712.22 656.63 710.08 661.99 700.43 661.99 702.57 669.5 729.37 677 729.37 697.37 734.73 700.58 728.3 711.3 712.22 690.93 709 680.22 700.43 679.14 701.5 700.58 684.35 689.86 686.5 674.86 678.99 670.57 676.85 651.27 675.77 619.12 668.27 619.12 663.98 637.34 668.27 639.48 668.27 649.13 656.48 653.42 655.41 639.48 644.69 639.48 644.69 650.2 635.04 666.28 610.39 650.2 613.6 641.63 617.89 636.27 610.39 630.91 606.1 604.11 599.67 599.82 601.81 595.53"/><polygon class="cls-3" points="725.08 638.41 725.08 645.91 734.73 649.13 733.66 640.55 725.08 638.41"/><polygon class="cls-3" points="644.69 661.99 644.69 669.5 653.26 672.71 650.05 664.14 644.69 661.99"/><polygon class="cls-3" points="667.2 688.79 665.06 697.37 655.41 697.37 672.56 714.52 687.57 714.52 687.57 701.65 667.2 688.79"/><polygon class="cls-3" points="677.92 720.95 682.21 733.81 695.07 739.17 687.57 731.67 683.28 720.95 677.92 720.95"/><polygon class="cls-3" points="757.24 667.35 750.81 681.29 760.46 701.65 781.9 704.87 776.54 690.93 767.96 685.58 769.03 678.07 776.54 678.07 775.47 669.5 769.03 664.14 757.24 667.35"/><polygon class="cls-3" points="788.33 709.16 790.47 714.52 799.05 717.73 799.05 709.16 788.33 709.16"/><polygon class="cls-3" points="776.54 750.96 778.68 762.75 788.33 769.19 786.18 754.18 776.54 750.96"/><polygon class="cls-3" points="779.75 730.6 781.9 737.03 788.33 739.17 788.33 730.6 779.75 730.6"/><polygon class="cls-3" points="729.37 739.17 730.44 746.68 736.88 746.68 734.73 739.17 729.37 739.17"/><polygon class="cls-3" points="698.29 746.68 698.29 754.18 709 759.54 709 769.19 718.65 782.05 718.65 769.19 715.44 750.96 698.29 746.68"/><polygon class="cls-3" points="773.32 623.4 771.18 635.19 781.9 649.13 779.75 636.27 781.9 623.4 773.32 623.4"/><polygon class="cls-3" points="821.56 636.27 824.77 649.13 837.64 658.78 846.21 667.35 848.36 688.79 840.85 688.79 830.13 684.5 832.28 694.15 846.21 697.37 846.21 704.87 834.42 714.52 846.21 726.31 839.78 739.17 848.36 750.96 834.42 759.54 838.71 782.05 823.7 788.48 834.42 797.06 841.92 805.63 852.64 805.63 852.64 814.21 834.42 817.42 827.99 823.86 839.78 830.29 858 833.5 858 843.15 846.21 849.58 841.92 858.16 854.79 862.45 860.15 876.38 871.94 876.38 871.94 890.32 880.51 914.97 882.66 929.98 864.44 925.69 845.14 904.25 836.57 904.25 833.35 913.9 830.13 925.69 819.41 919.26 822.63 912.83 815.13 902.11 826.92 896.75 815.13 891.39 803.34 891.39 799.05 876.38 788.33 873.16 788.33 853.87 779.75 849.58 771.18 862.45 771.18 845.29 760.46 843.15 750.81 829.22 741.16 826 741.16 813.14 729.37 797.06 716.51 798.13 721.87 805.63 729.37 810.99 729.37 822.78 740.09 841.01 732.59 844.22 729.37 853.87 746.52 860.3 750.81 869.95 743.31 874.24 750.81 883.88 736.88 884.96 741.16 895.67 747.6 896.75 745.45 905.32 734.73 905.32 722.94 890.32 707.93 889.24 700.43 877.45 695.07 876.38 695.07 860.3 677.92 852.8 673.63 833.5 665.06 834.57 661.84 843.15 648.98 841.01 651.12 848.51 662.91 854.94 661.84 865.66 655.41 864.59 644.69 853.87 642.54 843.15 631.83 850.65 631.83 858.16 642.54 862.45 653.26 873.16 653.26 886.03 642.54 886.03 616.82 856.01 597.52 854.94 570.73 858.16 537.5 842.08 514.99 826 514.99 837.79 523.56 843.15 514.99 853.87 523.56 860.3 536.42 859.23 541.78 867.8 528.92 871.02 523.56 881.74 514.99 884.96 505.34 896.75 513.91 906.39 523.56 929.98 551.43 939.62 561.08 961.06 561.08 977.14 550.36 984.65 565.37 999.65 561.08 1015.73 576.09 1022.16 588.95 1038.24 584.66 1054.32 572.87 1060.75 561.08 1057.54 549.29 1060.75 548.22 1071.47 557.08 1084.34 1169.34 1084.34 1146.36 1046.82 1147.43 1023.24 1141 1013.59 1144.21 999.65 1154.93 990 1154.93 978.21 1143.14 967.5 1141 952.49 1120.63 948.2 1110.98 936.41 1109.91 919.26 1091.69 911.75 1086.33 893.53 1084.18 877.45 1069.18 865.66 1063.82 849.58 1072.39 841.01 1074.54 828.14 1063.82 826 1056.31 830.29 1038.09 830.29 1015.58 831.36 1013.43 807.78 1015.58 786.34 1001.64 775.62 989.85 769.19 984.49 759.54 973.77 769.19 968.41 750.96 959.84 750.96 949.12 743.46 937.33 730.6 921.25 725.24 904.1 697.37 907.31 664.14 883.73 667.35 869.8 652.35 865.51 661.99 869.8 672.71 856.93 677 853.72 661.99 837.64 649.13 837.64 638.41 821.56 636.27"/><polygon class="cls-3" points="901.95 714.52 895.52 730.6 905.17 739.17 915.89 750.96 915.89 764.9 910.53 775.62 921.25 782.05 921.25 794.91 908.38 789.55 900.88 774.55 890.16 783.12 894.45 794.91 905.17 801.34 909.46 809.92 905.17 827.07 912.67 834.57 924.46 828.14 930.9 837.79 930.9 852.8 942.69 867.8 957.69 867.8 957.69 853.87 971.63 856.01 988.78 860.3 988.78 849.58 980.21 833.5 974.85 816.35 975.92 795.99 963.05 783.12 939.47 772.4 943.76 755.25 936.26 750.96 925.54 746.68 912.67 726.31 901.95 714.52"/><polygon class="cls-3" points="945.9 791.7 945.9 798.13 957.69 798.13 952.34 791.7 945.9 791.7"/><polygon class="cls-3" points="938.4 809.92 939.47 817.42 946.98 820.64 944.83 812.06 938.4 809.92"/><polygon class="cls-3" points="942.69 688.79 945.9 704.87 951.26 713.45 951.26 730.6 960.91 739.17 968.41 750.96 976.99 746.68 993.07 754.18 1009.15 746.68 998.43 743.46 1009.15 722.02 999.5 711.3 993.07 697.37 971.63 694.15 969.58 677.22 957.69 671.47 961.98 684.5 957.69 693.08 942.69 688.79"/><polygon class="cls-3" points="854.79 638.41 873.01 649.13 890.16 654.49 897.67 652.35 890.16 649.13 854.79 638.41"/><polygon class="cls-3" points="806.55 646.99 799.05 654.49 788.33 651.27 788.33 657.71 796.9 664.14 806.55 658.78 814.05 661.99 808.7 672.71 814.05 678.07 823.7 664.14 816.2 649.13 806.55 646.99"/><polygon class="cls-3" points="793.69 682.36 793.69 688.79 803.34 693.08 803.34 684.5 793.69 682.36"/><polygon class="cls-3" points="762.6 769.19 760.46 783.12 776.54 789.55 771.18 774.55 762.6 769.19"/><polygon class="cls-3" points="795.83 756.32 803.34 769.19 805.48 777.76 816.2 779.91 809.77 764.9 795.83 756.32"/><polygon class="cls-3" points="630.75 746.68 636.11 753.11 644.69 756.32 644.69 746.68 630.75 746.68"/><polygon class="cls-3" points="591.09 717.73 597.52 724.16 602.88 739.17 610.39 728.45 600.74 717.73 591.09 717.73"/><polygon class="cls-3" points="653.26 779.91 663.98 789.55 671.49 806.7 674.7 820.64 695.07 830.29 701.5 844.22 715.44 848.51 732.59 844.22 714.37 827.07 704.72 822.78 707.93 815.28 712.22 807.78 704.72 800.27 703.65 789.55 677.92 794.91 669.34 783.12 653.26 779.91"/><polygon class="cls-3" points="640.4 801.34 644.69 805.63 648.98 798.13 640.4 791.7 640.4 801.34"/><polygon class="cls-3" points="644.69 814.21 644.69 823.86 653.26 830.29 667.2 830.29 669.34 820.64 655.41 820.64 644.69 814.21"/><polygon class="cls-3" points="625.39 800.27 630.75 803.49 633.97 798.13 629.68 791.7 625.39 800.27"/><polygon class="cls-3" points="613.6 805.63 610.39 799.2 602.88 799.2 608.24 805.63 613.6 805.63"/><polygon class="cls-3" points="587.88 794.91 595.38 794.91 599.67 789.55 591.09 789.55 587.88 794.91"/><polygon class="cls-3" points="464.6 682.36 468.89 688.79 460.32 697.37 464.6 704.87 460.32 714.52 472.11 720.95 472.11 743.46 505.34 775.62 505.34 792.77 527.85 805.63 543.93 809.92 555.72 803.49 538.57 802.42 548.22 789.55 555.72 779.91 571.8 783.12 591.09 759.54 576.09 768.11 568.58 775.62 555.72 769.19 564.29 759.54 566.44 752.03 553.58 756.32 548.22 764.9 547.14 775.62 539.64 783.12 532.14 772.4 523.56 774.55 523.56 764.9 518.2 756.32 508.55 759.54 505.34 746.68 511.77 739.17 498.91 734.88 498.91 728.45 509.63 728.45 519.27 734.88 529.99 739.17 531.06 746.68 525.7 754.18 533.21 756.32 540.71 746.68 548.22 746.68 551.43 734.88 561.08 728.45 552.5 720.95 542.86 720.95 541.78 730.6 532.14 730.6 531.06 720.95 537.5 714.52 528.92 713.45 517.13 717.73 518.2 709.16 525.7 705.94 525.7 701.65 504.26 704.87 488.19 711.3 487.12 704.87 511.77 696.29 512.84 688.79 498.91 688.79 491.4 675.93 484.97 677 487.12 688.79 476.39 688.79 472.11 673.78 462.46 675.93 464.6 682.36"/><polygon class="cls-3" points="567.51 728.45 565.37 737.03 570.73 742.39 571.8 732.74 567.51 728.45"/><polygon class="cls-3" points="576.09 752.03 576.09 758.47 585.73 755.25 585.73 749.89 576.09 752.03"/><polygon class="cls-3" points="805.48 867.8 809.77 879.6 817.27 883.88 817.27 875.31 805.48 867.8"/><polygon class="cls-3" points="824.77 871.02 832.28 883.88 840.85 886.03 834.42 875.31 824.77 871.02"/><polygon class="cls-3" points="407.79 764.9 390.64 779.91 373.49 772.4 377.78 789.55 397.07 798.13 413.15 783.12 407.79 764.9"/><polygon class="cls-3" points="417.44 754.18 431.37 754.18 434.59 758.47 438.88 779.91 434.59 785.26 421.73 772.4 428.16 761.68 421.73 758.47 417.44 754.18"/><polygon class="cls-3" points="383.14 804.56 386.35 813.14 398.14 815.28 392.78 804.56 383.14 804.56"/><polygon class="cls-3" points="377.78 823.86 380.99 832.43 390.64 835.65 387.42 827.07 377.78 823.86"/><polygon class="cls-3" points="398.14 834.57 404.57 838.86 409.94 844.22 417.44 838.86 413.15 832.43 398.14 834.57"/><polygon class="cls-3" points="442.09 844.22 451.74 854.94 465.68 860.3 463.53 849.58 451.74 844.22 442.09 844.22"/><polygon class="cls-3" points="482.83 872.09 490.33 875.31 493.55 881.74 502.12 874.24 497.83 867.8 482.83 872.09"/><polygon class="cls-3" points="427.09 891.39 430.3 899.96 442.09 904.25 438.88 893.53 427.09 891.39"/><polygon class="cls-3" points="143.02 731.67 154.81 724.16 171.97 728.45 175.18 716.66 154.81 716.66 143.02 731.67"/><polygon class="cls-3" points="163.39 731.67 156.96 735.96 159.1 746.68 175.18 754.18 182.69 745.6 186.97 750.96 199.84 761.68 196.62 750.96 195.55 737.03 183.76 733.81 183.76 724.16 173.04 735.96 163.39 731.67"/><polygon class="cls-3" points="219.13 860.3 219.13 874.24 227.71 878.52 233.07 884.96 240.57 884.96 240.57 872.09 230.92 868.88 227.71 860.3 219.13 860.3"/><polygon class="cls-3" points="174.11 844.22 178.4 850.65 188.04 853.87 185.9 844.22 174.11 844.22"/><polygon class="cls-3" points="129.09 844.22 133.38 848.51 140.88 848.51 135.52 837.79 129.09 844.22"/><polygon class="cls-3" points="145.17 856.01 150.53 860.3 150.53 848.51 145.17 856.01"/><polygon class="cls-3" points="101.22 832.43 110.86 837.79 110.86 851.73 120.51 858.16 120.51 835.65 107.65 821.71 101.22 832.43"/><polygon class="cls-3" points="59.41 830.29 64.77 837.79 71.2 839.93 76.56 848.51 87.28 849.58 73.35 832.43 69.06 823.86 59.41 830.29"/><polygon class="cls-3" points="56.2 818.5 60.48 821.71 65.84 816.35 65.84 809.92 56.2 818.5"/><polygon class="cls-3" points="20.82 799.2 30.47 801.34 26.18 793.84 17.61 793.84 20.82 799.2"/><polygon class="cls-3" points="354.19 954.63 362.77 963.21 370.27 963.21 364.91 954.63 354.19 954.63"/><polygon class="cls-3" points="79.78 716.66 85.14 731.67 96.93 740.24 116.22 742.39 108.72 731.67 95.86 729.52 92.64 716.66 79.78 716.66"/><polygon class="cls-3" points="110.86 753.11 120.51 758.47 131.23 764.9 125.87 753.11 110.86 753.11"/><polygon class="cls-3" points="2.6 635.19 17.61 636.27 20.82 648.06 6.89 641.63 2.6 635.19"/><polygon class="cls-3" points="73.35 635.19 73.35 644.84 87.28 658.78 87.28 641.63 73.35 635.19"/><polygon class="cls-3" points="34.76 705.94 42.26 716.66 46.55 705.94 39.05 703.8 34.76 705.94"/><polygon class="cls-4" points="43.41 850.84 54.02 850.84 59.32 883.97 71.25 878.67 71.25 891.92 57.99 897.23 57.99 906.5 72.56 902.34 71.25 917.11 57.99 926.39 59.32 948.92 85.83 956.87 97.76 966.15 85.83 975.43 63.3 968.8 71.25 992.66 109.69 992.66 121.57 994.59 121.57 1004.52 109.69 1004.59 95.11 1007.24 97.76 1016.52 107.66 1019.8 95.73 1027.75 71.25 1016.52 59.32 1009.89 59.32 1033.75 80.53 1044.35 113.64 1040.38 109.66 1053.63 97.76 1053.63 101.73 1062.91 79.2 1057.61 59.32 1047.01 59.32 1057.61 77.88 1069.54 108.36 1062.91 126.92 1069.54 156.03 1080.93 39.75 1080.93 35.44 1070.86 10.28 1070.86 -4.3 1076.16 -22.86 1073.51 -22.86 1062.91 -4.3 1060.26 28.81 1057.61 39.41 1054.96 40.74 1043.03 26.18 1045.68 -0.33 1050.98 -22.86 1047.01 -37.44 1031.1 -34.79 1023.15 -18.88 1028.45 -4.3 1033.75 4.97 1029.77 19.55 1028.45 34.14 1017.84 22.21 1013.87 7.63 1020.5 -0.33 1015.19 11.6 1000.61 27.48 993.31 42.06 984.03 44.72 977.41 19.55 982.06 2.32 976.06 9.6 965.48 32.14 964.15 45.39 954.87 45.39 945.6 31.48 956.87 16.9 958.2 16.23 945.6 30.81 938.97 44.06 936.32 41.56 924.34 32.14 927.04 20.21 924.39 17.55 915.11 27.51 914.46 36.79 917.11 47.39 914.46 46.06 903.85 30.79 906.5 21.51 902.53 30.16 894.58 43.41 889.27 43.41 850.84"/><polygon class="cls-5" points="43.56 851.34 49.02 848.84 59.56 884.34 66.25 876.67 71.56 892.34 52.56 895.34 57.56 906.34 66.25 900.53 66.25 915.11 52.99 924.39 59.56 949.34 80.83 954.87 92.76 964.15 80.83 973.43 58.3 966.8 65.56 990.34 104.69 990.66 124.57 1002.59 124.57 1014.52 104.69 1002.59 90.11 1005.24 92.76 1014.52 108.66 1023.8 96.73 1031.75 66.25 1014.52 54.32 1007.89 54.32 1031.75 75.53 1042.35 112.64 1038.38 108.66 1051.63 92.76 1051.63 96.73 1060.91 74.2 1055.61 58.32 1045.01 58.32 1055.61 72.88 1067.54 103.36 1060.91 121.92 1067.54 151.03 1080.93 34.75 1080.93 34.44 1068.86 5.28 1068.86 -3.3 1076.16 -21.86 1073.51 -21.86 1062.91 -9.3 1058.26 27.81 1055.61 38.41 1052.96 39.74 1041.03 21.18 1043.68 -5.33 1048.98 -27.86 1045.01 -40.44 1023.1 -37.79 1015.15 -23.88 1026.45 -9.3 1031.75 -0.03 1027.77 14.55 1026.45 29.14 1015.84 17.21 1011.87 2.63 1018.5 -5.33 1013.19 6.6 998.61 26.48 993.31 41.06 984.03 43.72 977.41 14.55 980.06 -2.68 980.06 6.6 965.48 29.14 964.15 42.39 954.87 42.39 945.6 26.48 954.87 11.9 956.2 13.23 945.6 27.81 938.97 41.06 936.32 41.06 924.39 29.14 927.04 17.21 924.39 14.55 915.11 22.51 912.46 31.79 915.11 42.39 912.46 46.56 904.34 31.79 904.5 22.51 900.53 25.16 892.58 43.56 889.34 43.56 851.34"/><polygon class="cls-4" points="433.56 911.34 445.56 917.34 446.32 946.97 460.56 946.34 477.56 952.34 444.99 960.23 444.99 969.5 474.56 967.34 458.25 980.11 444.99 989.39 445.56 1004.34 472.83 1003.87 484.76 1013.15 472.83 1022.43 450.3 1031.8 458.25 1055.66 496.69 1055.66 508.57 1057.59 508.57 1067.52 496.69 1067.59 482.11 1070.24 484.76 1079.52 494.66 1082.8 482.73 1090.75 458.25 1079.52 446.32 1072.89 446.32 1096.75 467.53 1107.35 500.64 1103.38 496.66 1116.63 484.76 1116.63 488.73 1125.91 466.2 1120.61 446.32 1110.01 446.32 1120.61 464.88 1132.54 495.36 1125.91 513.92 1132.54 543.03 1143.93 426.75 1143.93 422.44 1133.86 397.28 1133.86 382.7 1139.16 364.14 1136.51 364.14 1125.91 382.7 1123.26 415.81 1120.61 426.41 1117.96 427.74 1106.03 413.18 1108.68 386.67 1113.98 364.14 1110.01 349.56 1094.1 352.21 1086.15 368.12 1091.45 382.7 1096.75 391.98 1092.77 406.56 1091.45 421.14 1080.84 409.21 1076.87 394.63 1083.49 386.67 1078.19 398.6 1063.61 414.49 1056.31 429.06 1047.03 431.72 1040.41 406.56 1045.06 389.32 1039.06 396.6 1028.48 419.14 1027.15 432.39 1017.87 432.39 1008.6 418.49 1019.87 403.9 1021.2 403.23 1008.6 417.81 1001.97 431.06 999.32 428.56 987.34 419.14 990.04 407.21 987.39 404.56 978.11 414.51 977.46 423.79 980.11 434.39 977.46 433.06 966.85 417.79 969.5 405.56 957.34 415.56 952.34 430.41 952.27 433.56 911.34"/><polygon class="cls-5" points="434.56 916.34 444.56 909.34 446.56 947.34 466.56 943.34 470.56 957.34 444.56 960.34 444.56 969.34 461.56 964.34 457.56 978.34 444.56 989.34 445.56 1004.34 477.83 995.87 489.76 1005.15 477.83 1014.43 451.3 1025.8 458.56 1049.34 491.69 1053.66 511.57 1065.59 511.57 1077.52 491.69 1065.59 477.11 1068.24 479.76 1077.52 495.66 1086.8 483.73 1094.75 453.25 1077.52 441.32 1070.89 441.32 1094.75 462.53 1105.35 499.64 1101.38 495.66 1114.63 479.76 1114.63 483.73 1123.91 461.2 1118.61 445.32 1108.01 445.32 1118.61 459.88 1130.54 490.36 1123.91 508.92 1130.54 538.03 1143.93 421.75 1143.93 421.44 1131.86 392.28 1131.86 383.7 1139.16 365.14 1136.51 365.14 1125.91 377.7 1121.26 414.81 1118.61 425.41 1115.96 426.74 1104.03 408.18 1106.68 381.67 1111.98 359.14 1108.01 346.56 1086.1 349.21 1078.15 363.12 1089.45 377.7 1094.75 386.98 1090.77 401.56 1089.45 416.14 1078.84 404.21 1074.87 389.63 1081.49 381.67 1076.19 393.6 1061.61 413.49 1056.31 428.06 1047.03 430.72 1040.41 401.56 1043.06 384.32 1043.06 393.6 1028.48 416.14 1027.15 429.39 1017.87 429.39 1008.6 413.49 1017.87 398.9 1019.2 400.23 1008.6 414.81 1001.97 428.06 999.32 428.06 987.39 416.14 990.04 404.21 987.39 401.56 978.11 409.51 975.46 418.79 978.11 429.39 975.46 433.56 967.34 418.79 967.5 405.56 952.34 414.56 943.34 430.56 952.34 434.56 916.34"/><polygon class="cls-6" points="192.56 775.34 195.56 790.34 183.56 794.34 192.56 803.34 183.56 803.34 180.56 807.34 189.56 809.34 192.56 813.34 185.56 814.34 173.56 813.34 178.56 820.34 177.56 826.34 188.56 826.34 194.56 819.34 207.56 818.34 213.56 808.34 213.56 801.34 205.56 802.34 200.56 807.34 199.56 795.34 195.56 790.34 199.56 784.34 197.56 775.34 192.56 775.34"/><polygon class="cls-6" points="194.56 828.34 188.56 839.34 174.56 837.34 165.56 839.34 165.56 845.34 173.56 851.34 192.56 849.34 191.56 857.34 179.56 860.34 167.56 868.34 165.56 874.34 169.56 878.34 181.56 874.34 189.56 867.34 194.56 869.34 198.56 874.34 195.56 880.34 186.56 887.34 163.56 887.34 153.56 893.34 153.56 893.34 155.56 905.34 167.56 901.34 178.56 903.34 191.56 899.34 198.56 902.34 196.56 906.34 185.56 909.34 176.56 916.34 162.56 921.34 154.56 931.34 153.56 937.34 152.56 942.34 160.56 940.34 160.56 940.34 177.56 928.34 173.56 935.34 177.56 938.34 184.56 931.34 184.56 924.34 191.56 927.34 192.56 921.34 188.56 917.34 195.56 914.34 199.56 921.34 201.56 927.34 210.56 932.34 216.56 940.34 223.56 942.34 228.56 951.34 235.56 951.34 242.56 956.34 252.56 956.34 254.56 949.34 248.56 946.34 243.56 940.34 235.56 942.34 232.56 935.34 239.56 934.34 245.56 928.34 256.56 929.34 266.56 928.34 266.56 923.34 257.56 917.34 245.56 917.34 234.56 915.34 216.56 921.34 208.56 914.34 214.56 911.34 227.56 903.34 211.56 899.34 205.56 897.34 208.56 890.34 217.56 888.34 226.56 894.34 232.56 895.34 239.56 894.34 241.56 888.34 234.56 879.34 219.56 879.34 212.56 874.34 202.56 870.34 198.56 856.34 203.56 846.34 212.56 834.34 216.56 828.34 206.56 826.34 201.56 830.34 194.56 828.34"/><polygon class="cls-6" points="197.56 932.34 183.56 941.34 174.56 945.34 159.56 945.34 140.56 953.34 122.56 953.34 111.56 947.34 114.56 955.34 108.56 965.34 122.56 965.34 127.56 970.34 143.56 970.34 162.56 973.34 171.56 965.34 186.56 962.34 188.56 973.34 169.56 980.34 139.56 980.34 124.56 983.34 112.56 995.34 129.56 997.34 142.56 993.34 150.56 999.34 162.56 995.34 170.56 999.34 176.56 999.34 182.56 987.34 185.56 996.34 193.56 996.34 194.56 983.34 203.56 978.34 197.56 970.34 197.56 962.34 210.56 971.34 225.56 980.34 233.56 983.34 237.56 978.34 252.56 976.34 270.56 980.34 275.56 978.34 273.56 970.34 257.56 965.34 243.56 965.34 223.56 962.34 211.56 953.34 205.56 945.34 203.56 935.34 197.56 932.34"/><polygon class="cls-6" points="144.56 962.34 159.56 962.34 165.56 959.34 181.56 956.34 192.56 955.34 192.56 947.34 177.56 950.34 164.56 951.34 157.56 955.34 144.56 962.34"/><polygon class="cls-6" points="217.56 985.34 217.56 985.34 222.56 992.34 235.56 992.34 248.56 999.34 266.56 999.34 281.56 1004.34 285.56 1017.34 269.56 1012.34 251.56 1009.34 241.56 1006.34 233.56 1009.34 248.56 1017.34 259.56 1020.34 272.56 1030.34 281.56 1037.34 286.56 1046.34 266.56 1042.34 253.56 1027.34 241.56 1027.34 230.56 1020.34 217.56 1020.34 207.56 1009.34 189.56 1016.34 192.56 1024.34 184.56 1027.34 177.56 1020.34 163.56 1030.34 168.56 1035.34 169.56 1044.34 180.56 1035.34 192.56 1037.34 208.56 1022.34 218.56 1025.34 220.56 1030.34 208.56 1039.34 208.56 1039.34 227.56 1052.34 248.56 1052.34 281.56 1064.34 293.56 1064.34 307.56 1071.34 320.56 1086.34 299.56 1083.34 284.56 1078.34 278.56 1083.34 288.56 1087.34 304.56 1092.34 317.56 1092.34 322.56 1099.34 318.56 1107.34 305.56 1104.34 295.56 1098.34 284.56 1096.34 270.56 1096.34 253.56 1087.34 233.56 1077.34 222.56 1072.34 210.56 1075.34 201.56 1061.34 203.56 1046.34 195.56 1051.34 199.56 1067.34 184.56 1073.34 174.56 1065.34 161.56 1070.34 149.56 1081.34 131.56 1088.34 112.56 1094.34 104.56 1091.34 106.56 1081.34 120.56 1079.34 138.56 1068.34 140.56 1058.34 122.56 1062.34 110.56 1071.34 80.56 1070.34 71.56 1076.34 59.56 1076.34 67.56 1064.34 90.56 1053.34 117.56 1039.34 134.56 1035.34 142.56 1030.34 136.56 1039.34 123.56 1045.34 123.56 1054.34 131.56 1050.34 139.56 1042.34 147.56 1032.34 155.56 1027.34 164.56 1015.34 149.56 1017.34 147.56 1023.34 127.56 1026.34 110.56 1023.34 103.56 1027.34 107.56 1011.34 137.56 1009.34 149.56 1004.34 175.56 1002.34 196.56 999.34 202.56 993.34 217.56 985.34"/><polygon class="cls-6" points="148.56 962.34 163.56 962.34 169.56 959.34 185.56 956.34 196.56 955.34 196.56 947.34 181.56 950.34 168.56 951.34 161.56 955.34 148.56 962.34"/><polygon class="cls-5" points="196.56 775.34 192.56 786.34 187.56 794.34 196.56 803.34 187.56 803.34 184.56 807.34 193.56 809.34 196.56 813.34 189.56 814.34 177.56 813.34 173.56 821.34 181.56 826.34 192.56 826.34 198.56 819.34 211.56 818.34 217.56 808.34 217.56 801.34 209.56 802.34 204.56 807.34 203.56 795.34 199.56 790.34 203.56 784.34 201.56 775.34 196.56 775.34"/><polygon class="cls-5" points="198.56 828.34 192.56 839.34 178.56 837.34 166.56 834.34 169.56 845.34 177.56 851.34 190.56 850.34 191.56 857.34 183.56 860.34 171.56 868.34 169.56 874.34 173.56 878.34 185.56 874.34 193.56 867.34 198.56 869.34 202.56 874.34 199.56 880.34 190.56 887.34 167.56 887.34 157.56 893.34 153.56 901.34 159.56 905.34 171.56 901.34 182.56 903.34 195.56 899.34 202.56 902.34 200.56 906.34 189.56 909.34 180.56 916.34 166.56 921.34 158.56 931.34 153.56 937.34 156.56 942.34 164.56 940.34 173.56 930.34 177.56 928.34 177.56 935.34 181.56 938.34 188.56 931.34 188.56 924.34 195.56 927.34 196.56 921.34 192.56 917.34 199.56 914.34 203.56 921.34 205.56 927.34 214.56 932.34 220.56 940.34 227.56 942.34 232.56 951.34 239.56 951.34 246.56 956.34 256.56 956.34 258.56 949.34 252.56 946.34 247.56 940.34 239.56 942.34 236.56 935.34 243.56 934.34 249.56 928.34 260.56 929.34 270.56 928.34 270.56 923.34 261.56 917.34 249.56 917.34 238.56 915.34 220.56 921.34 212.56 914.34 218.56 911.34 222.56 903.34 215.56 899.34 209.56 897.34 212.56 890.34 221.56 888.34 230.56 894.34 236.56 895.34 243.56 894.34 245.56 888.34 238.56 879.34 223.56 879.34 216.56 874.34 202.56 874.34 199.56 846.34 207.56 846.34 216.56 834.34 210.56 826.34 210.56 826.34 205.56 830.34 198.56 828.34"/><polygon class="cls-5" points="201.56 932.34 187.56 941.34 178.56 945.34 163.56 945.34 144.56 953.34 126.56 953.34 115.56 947.34 107.56 953.34 112.56 965.34 126.56 965.34 131.56 970.34 147.56 970.34 166.56 973.34 175.56 965.34 190.56 962.34 192.56 973.34 173.56 980.34 143.56 980.34 128.56 983.34 116.56 995.34 133.56 997.34 146.56 993.34 154.56 999.34 170.56 987.34 174.56 999.34 180.56 999.34 182.56 987.34 189.56 996.34 197.56 996.34 198.56 983.34 200.56 977.34 201.56 970.34 201.56 962.34 214.56 971.34 229.56 980.34 237.56 983.34 241.56 978.34 256.56 976.34 274.56 980.34 279.56 978.34 277.56 970.34 261.56 965.34 247.56 965.34 227.56 962.34 215.56 953.34 209.56 945.34 207.56 935.34 201.56 932.34"/><polygon class="cls-5" points="211.56 983.34 221.56 985.34 226.56 992.34 239.56 992.34 252.56 999.34 270.56 999.34 285.56 1004.34 285.56 1017.34 273.56 1012.34 255.56 1009.34 245.56 1006.34 237.56 1009.34 252.56 1017.34 263.56 1020.34 276.56 1030.34 285.56 1037.34 279.56 1049.34 270.56 1042.34 257.56 1027.34 245.56 1027.34 234.56 1020.34 221.56 1020.34 211.56 1009.34 193.56 1016.34 196.56 1024.34 188.56 1027.34 177.56 1020.34 167.56 1030.34 172.56 1035.34 173.56 1044.34 184.56 1035.34 196.56 1037.34 212.56 1022.34 222.56 1025.34 224.56 1030.34 212.56 1039.34 215.56 1049.34 231.56 1052.34 252.56 1052.34 285.56 1064.34 297.56 1064.34 311.56 1071.34 311.56 1083.34 303.56 1083.34 288.56 1078.34 282.56 1083.34 292.56 1087.34 308.56 1092.34 321.56 1092.34 326.56 1099.34 322.56 1107.34 309.56 1104.34 299.56 1098.34 288.56 1096.34 274.56 1096.34 257.56 1087.34 237.56 1077.34 226.56 1072.34 214.56 1075.34 205.56 1061.34 203.56 1046.34 199.56 1051.34 199.56 1067.34 188.56 1073.34 178.56 1065.34 165.56 1070.34 153.56 1081.34 135.56 1088.34 116.56 1094.34 104.56 1091.34 110.56 1081.34 124.56 1079.34 142.56 1068.34 140.56 1058.34 126.56 1062.34 114.56 1071.34 84.56 1070.34 75.56 1076.34 63.56 1076.34 71.56 1064.34 94.56 1053.34 121.56 1039.34 138.56 1035.34 146.56 1030.34 140.56 1039.34 127.56 1045.34 127.56 1054.34 135.56 1050.34 143.56 1042.34 151.56 1032.34 159.56 1027.34 164.56 1015.34 153.56 1017.34 151.56 1023.34 131.56 1026.34 114.56 1023.34 107.56 1027.34 107.56 1011.34 141.56 1009.34 153.56 1004.34 179.56 1002.34 200.56 999.34 206.56 993.34 211.56 983.34"/><polygon class="cls-7" points="1418.91 789.61 1433 765.29 1487.01 719.5 1537.92 726.38 1574.68 733.61 1600.77 761.44 1626.29 797.71 1630.47 822.01 1601.89 826.93 1555.11 820.39 1502.35 808.61 1462.63 801.89 1434.98 800.4 1418.91 789.61"/><polyline class="cls-7" points="1627.86 806.83 1645.49 826.73 1660.16 829.42 1695.3 839.01 1710.2 848.96 1725.1 858.9 1749.63 859.9"/><polygon class="cls-7" points="1535.54 718.45 1542.44 717.26 1543.31 722.33 1542.37 727.26 1533.56 725.79 1535.54 718.45"/><polyline class="cls-7" points="1625.27 822.91 1629.04 860.84 1614.95 867.43 1604.22 864.06 1586.43 860.87 1567.18 861.06 1551.64 853.3 1527.93 851.13 1508.79 846.08 1493.49 845.59 1476.15 839.18 1452.96 840.05 1430.99 830.27 1424.84 824.03 1418.87 836.53 1398.81 837.9 1370.64 833.36 1352.26 838.61 1333.47 835.59 1306.81 833.92 1294.57 809.96 1293.52 786.16 1310.27 783.28 1325.03 780.74 1341.81 777.85 1360.07 777.84 1386.56 778.49 1405.35 781.51 1424.28 780.34 1439.09 783.01 1457.76 791.26 1473.94 796.82 1472.54 788.72 1491.96 789.55 1509.82 798.99 1528.55 795.76 1564.32 803.16 1605.37 811.74 1628.85 812.56"/><polyline class="cls-7" points="1746.03 862.99 1749 897.54 1727.32 901.27 1708.47 892 1686.67 883.24 1665.1 881.74 1645.56 868.42 1633.62 857.97 1629.04 860.84 1630.47 822.01 1653.21 842.08 1675.12 845.61 1698.26 856.23 1723.71 868.53 1739.02 869.02 1749.63 859.9 1706.59 816.22 1673.25 787.55 1635.33 761.75 1604.94 750.3 1574.68 733.61"/><polyline class="cls-7" points="1448.99 838.28 1444.52 857.68 1443.43 862.4 1435.11 866.05 1408.73 860.17 1384.61 849.72 1363.68 846.03 1336.67 842.33 1324.47 835.02"/><polyline class="cls-7" points="1444.91 858.11 1449.26 865.71 1462.48 871.77 1477.79 872.27 1499.18 872.76 1518.14 876.79 1521.03 849.31"/><polyline class="cls-7" points="1529.47 851.27 1526.37 877.46 1536.92 879.82 1569.56 886.71 1578.14 889.4 1591.42 883.99 1591.24 881.62 1589.74 861.47"/><polyline class="cls-7" points="1708.47 892 1682.96 891.18 1666.32 888.83 1643.6 886.48 1609.57 889.21 1595.71 885.34 1591.42 883.99 1595.78 909.31 1606.04 915.88 1621.87 919.41 1638.62 916.53 1662.68 920.73 1682.91 920.38 1691.78 918.85 1711.21 919.68 1723.32 913.43 1737.47 913.08 1747.61 907.16 1749 897.54"/><polyline class="cls-7" points="1526.37 877.46 1523.19 906.16 1533.05 904.46 1542.79 908 1553.63 906.13 1568.64 910.85 1574.44 915.06 1595.78 909.31"/><polyline class="cls-7" points="1518.14 876.79 1514.15 906.67 1499.3 902.97 1478.09 903.49 1444.22 889.51 1430.43 891.88 1413.09 885.48 1402.89 885.15 1388.8 874.02 1378.13 876.9 1366.07 871.68 1353.26 873.88 1333.87 866.87 1316.38 854.17 1306.98 834.93"/><polyline class="cls-7" points="1424.84 824.03 1418.91 789.61 1408.95 796.53 1392.83 797.22 1382.45 795.88 1368.65 798.25 1343.14 797.43 1312.71 797.46 1299.84 793.41 1293.52 786.16 1326.21 763.86 1368.46 744.07 1425.39 726.98 1487.01 719.5"/><polyline class="cls-7" points="1514.15 906.67 1491.91 1087.74 1503.78 1085.91 1523.02 905.14"/><polyline class="cls-7" points="1326.38 764.87 1369.74 757.41 1408.12 762.27 1433 765.29 1513.53 773.33 1576.14 783.4 1626.29 797.71 1648.56 803.26 1682.42 817.25 1709.67 819.34"/><polyline class="cls-7" points="1350.86 752.32 1377.86 745.58 1403.37 746.41 1446.89 753.52 1497.58 757.3 1550.45 763.85 1586.57 773.27 1615.17 781.9 1637.36 785.38 1671.4 800.38 1689.79 801.76"/><polyline class="cls-7" points="1402.22 734.09 1427.42 732.88 1443.89 734.22 1466.29 737.07 1515.02 740.75 1560.83 747.46 1594.57 754.83 1613.3 763.46 1648.84 770.95"/><polyline class="cls-7" points="1426.38 726.81 1453.86 727.29 1476.21 728.66 1509.34 731.3 1559.26 738.35 1585.81 745.25 1604.83 755.53 1642.27 766.48"/><polygon class="cls-7" points="1527.56 986.34 1535.56 981.34 1606.56 981.34 1617.56 993.34 1633.56 1047.34 1607.56 988.34 1527.56 986.34"/><polygon class="cls-7" points="1553.56 1054.34 1534.56 1011.34 1527.56 986.34 1527.56 997.34 1532.56 1014.34 1540.56 1029.34 1548.56 1047.34 1553.56 1054.34"/><polygon class="cls-7" points="1535.56 998.34 1547.56 1002.34 1584.56 1004.34 1600.56 1003.34 1609.56 1001.34 1604.56 1005.34 1588.56 1007.34 1547.56 1005.34 1539.56 1002.34 1535.56 998.34"/><polygon class="cls-7" points="1540.56 1011.34 1549.56 1015.34 1567.56 1018.34 1597.56 1018.34 1608.56 1016.34 1613.56 1014.34 1613.56 1018.34 1596.56 1022.34 1562.56 1022.34 1549.56 1020.34 1540.56 1011.34"/><polygon class="cls-7" points="1549.56 1027.34 1561.56 1030.34 1588.56 1032.34 1606.56 1030.34 1618.56 1027.34 1618.56 1030.34 1604.56 1035.34 1588.56 1035.34 1564.56 1033.34 1553.56 1031.34 1549.56 1027.34"/><polygon class="cls-7" points="1551.56 1038.34 1565.56 1045.34 1590.56 1045.34 1615.56 1042.34 1624.56 1038.34 1620.56 1045.34 1588.56 1049.34 1560.56 1047.34 1551.56 1038.34"/><polyline class="cls-7" points="1657.56 1035.34 1655.56 1027.34 1647.56 1031.34 1642.56 1044.34 1641.56 1064.34 1639.56 1080.34 1628.56 1080.34 1628.56 1074.34 1589.56 1074.34 1539.56 1073.34 1538.56 1080.34 1527.56 1080.34 1530.56 1061.34 1533.56 1044.34 1540.56 1029.34 1544.56 1038.34 1540.56 1047.34 1540.56 1064.34 1564.56 1066.34 1613.56 1067.34 1631.56 1064.34 1633.56 1047.34 1639.56 1027.34 1647.56 1022.34 1658.56 1022.34 1662.56 1033.34 1666.56 1031.34 1676.56 1035.34 1664.56 1039.34 1662.56 1047.34"/><polyline class="cls-7" points="1553.56 1054.34 1545.56 1059.34 1540.56 1059.34"/><polyline class="cls-7" points="1632.74 1054.34 1628.56 1059.34 1620.56 1063.34 1585.56 1063.34 1567.56 1062.34 1557.56 1059.34 1551.56 1065.25"/><polyline class="cls-7" points="1669.56 1037.34 1667.56 1056.34 1666.56 1073.34 1671.56 1073.34 1676.56 1035.34"/><polyline class="cls-7" points="1657.56 1035.34 1656.56 1080.34 1664.56 1080.34 1662.56 1047.34"/><line class="cls-7" x1="1628.32" y1="1027.34" x2="1639.56" y2="1027.34"/><line class="cls-7" x1="1657.56" y1="1050.34" x2="1641.81" y2="1059.34"/><line class="cls-7" x1="1652.18" y1="1029.02" x2="1656.56" y2="1031.34"/><line class="cls-7" x1="1642.41" y1="1047.34" x2="1657.56" y2="1040.34"/><polyline class="cls-7" points="1439.56 1060.84 1419.56 1059.34 1399.56 1059.34 1393.56 1059.34 1393.56 1062.34"/><polyline class="cls-7" points="1364.56 1040.34 1332.56 994.34 1331.56 990.34 1334.56 989.34 1366.56 987.34 1403.56 987.34 1413.56 996.34 1426.56 1018.34 1441.56 1044.34 1439.56 1053.34 1439.56 1062.34 1356.56 1062.34 1361.56 1047.34 1364.56 1040.34 1377.56 1054.34 1377.56 1062.84"/><polygon class="cls-7" points="1341.56 999.34 1354.56 1003.34 1384.56 1005.34 1398.56 1004.34 1412.56 1002.34 1401.56 1001.34 1390.56 1002.34 1370.56 1002.34 1350.56 1000.34 1341.56 999.34"/><polygon class="cls-7" points="1348.56 1009.34 1364.56 1016.34 1386.56 1018.34 1404.56 1018.34 1419.56 1015.34 1410.56 1015.34 1394.56 1016.34 1374.56 1015.34 1358.56 1012.34 1348.56 1009.34"/><polygon class="cls-7" points="1355.56 1020.34 1368.56 1028.34 1383.56 1030.34 1404.56 1030.34 1419.56 1030.34 1427.56 1027.34 1413.56 1028.34 1386.56 1028.34 1369.56 1026.34 1355.56 1020.34"/><polygon class="cls-7" points="1370.56 1038.34 1386.56 1043.34 1416.56 1043.34 1434.56 1041.34 1425.56 1040.34 1409.56 1041.34 1384.56 1040.34 1370.56 1038.34"/><polyline class="cls-7" points="1331.56 990.34 1339.56 984.34 1351.56 983.34 1381.56 983.34 1412.56 983.34 1416.56 990.34 1425.56 1003.34 1442.56 1032.34 1450.56 1027.34 1462.56 1023.34 1467.56 1022.34 1477.56 1022.34 1486.56 1029.34 1476.56 1031.34 1459.56 1035.34 1458.56 1046.34 1455.56 1065.34 1452.56 1080.34 1461.56 1080.34 1465.56 1062.34 1466.56 1043.34 1475.56 1041.34 1493.56 1041.34 1505.56 1038.34 1509.56 1041.34 1512.56 1053.34 1512.56 1066.34 1513.56 1080.34 1523.56 1080.34 1521.56 1059.34 1517.56 1037.34 1509.56 1028.34 1497.56 1027.34 1486.56 1029.34"/><line class="cls-7" x1="1377.56" y1="1056.84" x2="1365.11" y2="1062.34"/><polyline class="cls-7" points="1358.65 1031.84 1346.56 1063.34 1341.56 1080.34 1352.56 1080.34 1355.56 1069.34 1379.56 1069.34 1410.56 1069.34 1434.56 1071.34 1432.56 1080.34 1443.56 1080.34 1449.56 1059.34 1451.56 1042.34 1459.29 1038.34"/><polyline class="cls-7" points="1412.56 983.34 1418.56 983.34 1430.56 1002.34 1440.64 1023.41 1441.56 1025.34 1445.76 1030.34"/><line class="cls-7" x1="1446.56" y1="1069.85" x2="1455.56" y2="1065.34"/><polyline class="cls-7" points="1465.89 1056.09 1479.56 1048.34 1486.56 1048.34 1505.56 1038.34"/><polyline class="cls-7" points="1517.87 1039.06 1525.56 1038.34 1535.56 1039.34 1539.56 1031.34 1532.56 1027.34 1517.56 1025.34 1504.56 1022.34 1477.56 1020.34 1459.56 1018.34 1446.56 1022.34 1440.56 1023.34"/><polyline class="cls-7" points="1489.06 1047.34 1490.56 1059.34 1489.56 1074.34 1488.56 1080.34 1501.56 1080.34 1502.56 1063.34 1502.56 1049.34 1502.56 1039.91"/><line class="cls-7" x1="1530.49" y1="1038.83" x2="1533.03" y2="1047.34"/><line class="cls-7" x1="1549.56" y1="1056.09" x2="1546.67" y2="1043.08"/><circle class="cls-8" cx="439.06" cy="276.84" r="66"/><circle class="cls-6" cx="509" cy="385.85" r="15.45"/><circle class="cls-6" cx="509" cy="352.26" r="10.08"/><circle class="cls-6" cx="509" cy="329.42" r="7.39"/><circle class="cls-6" cx="508.55" cy="306.58" r="7.39"/><circle class="cls-6" cx="478.32" cy="281.73" r="6.72"/><circle class="cls-6" cx="508.55" cy="263.59" r="7.39"/><circle class="cls-6" cx="524.67" cy="256.73" r="6.54"/><circle class="cls-6" cx="493.77" cy="271.65" r="7.39"/><path class="cls-6" d="M450.11,284.42l92.7-51.05s9.4,25.52-30.9,52.39S450.11,284.42,450.11,284.42Z"/><path class="cls-6" d="M477,268.83c-2.2-4.29-8.8-5.3-14.75-2.26s-7.62,9.52-5.42,13.82"/><path class="cls-6" d="M507.9,252.71c-2.2-4.29-8.8-5.31-14.75-2.26s-9,9-6.78,13.28"/><path class="cls-6" d="M540.14,235.24c-2.2-4.29-8.8-5.3-14.74-2.26s-9,9-6.79,13.29"/><path class="cls-6" d="M523.53,276.93s-13,97.5,19.28,125.71h51.05V503.4l-143.75,1.34V402.64h24.18c28.22-26.87,20.65-108.19,20.65-108.19"/><polyline class="cls-6" points="450.11 402.64 432.65 417.42 432.65 516.84 450.11 504.74"/><polyline class="cls-6" points="593.86 503.4 577.74 516.84 432.65 516.84"/><rect class="cls-6" x="455.49" y="417.42" width="37.62" height="17.46"/><rect class="cls-6" x="505.19" y="417.42" width="34.93" height="17.46"/><rect class="cls-6" x="550.87" y="417.42" width="37.62" height="17.46"/><rect class="cls-6" x="455.49" y="438.92" width="37.62" height="28.21"/><rect class="cls-6" x="505.19" y="438.92" width="34.93" height="28.21"/><rect class="cls-6" x="550.87" y="438.92" width="37.62" height="28.21"/><polygon class="cls-6" points="438.02 442.94 446.08 438.92 446.08 422.79 438.02 428.17 438.02 442.94"/><polygon class="cls-6" points="438.02 449.66 438.02 476.53 446.08 471.16 446.08 445.63 438.02 449.66"/><polyline class="cls-6" points="432.65 490.02 450.11 479.35 450.11 472.99 432.65 483.25"/><polygon class="cls-6" points="433.99 445.63 433.99 451.01 448.77 444.29 448.77 437.57 433.99 445.63"/><polyline class="cls-6" points="450.11 412.42 495.79 412.05 495.79 402.64 474.29 402.64"/><rect class="cls-6" x="502.51" y="402.64" width="40.3" height="10.75"/><polyline class="cls-6" points="548.18 401.97 548.18 413.39 593.86 413.39"/><polyline class="cls-6" points="495.79 402.64 502.51 402.64 502.51 434.88 505.19 434.88"/><polyline class="cls-6" points="493.1 434.88 495.79 434.88 495.79 412.05"/><polyline class="cls-6" points="493.1 438.92 495.79 438.92 495.79 472.5 450.11 472.5"/><polyline class="cls-6" points="450.11 479.22 495.79 479.22 495.79 504.07"/><polyline class="cls-6" points="550.87 438.92 548.18 438.92 548.18 472.5 593.86 472.5"/><polyline class="cls-6" points="548.18 413.39 548.18 434.88 550.87 434.88"/><line class="cls-6" x1="588.49" y1="434.88" x2="588.49" y2="439.59"/><polyline class="cls-6" points="505.19 438.92 502.51 438.92 502.51 472.5 542.81 472.5 542.81 438.92 540.12 438.92"/><line class="cls-6" x1="455.49" y1="434.88" x2="455.49" y2="438.92"/><polyline class="cls-6" points="540.12 434.88 542.81 434.88 542.81 413.39"/><polyline class="cls-6" points="500.49 504.27 500.49 479.22 542.81 479.22 542.81 504.27"/><polyline class="cls-6" points="548.18 503.83 548.18 479.22 593.86 479.22"/><path class="cls-6" d="M-138.32,481.91S340,362.34,462.76,293.88"/><line class="cls-6" x1="974.06" y1="-8.46" x2="541.47" y2="252.17"/><path class="cls-9" d="M907.68,929.44v23.73H897.6V892H917a31.71,31.71,0,0,1,8.74,1.21,20.59,20.59,0,0,1,6.88,3.45,15.8,15.8,0,0,1,4.45,5.73,20.59,20.59,0,0,1,.78,13.71,16.32,16.32,0,0,1-5.82,8.23,23.59,23.59,0,0,1-4.57,2.69l13.06,25.57v.55h-10.8L918,929.44Zm9.45-8.23a15,15,0,0,0,4.85-.82,10.12,10.12,0,0,0,3.67-2.25,8.6,8.6,0,0,0,2.1-3.1,11.07,11.07,0,0,0,.76-4.2,12.24,12.24,0,0,0-.82-4.64,8.55,8.55,0,0,0-2.42-3.34A9.86,9.86,0,0,0,921.7,901a17,17,0,0,0-4.7-.69h-9.32v21Z"/><path class="cls-9" d="M959.75,925.75v19.1h29.52v8.32H949.63V892h39.43v8.35H959.75V917.6H985v8.15Z"/><path class="cls-9" d="M1039.66,892v42.45a19.87,19.87,0,0,1-1.62,7.87,18.8,18.8,0,0,1-4.34,6.2,19.25,19.25,0,0,1-6.45,4,22.29,22.29,0,0,1-8,1.43,25.49,25.49,0,0,1-8.13-1.24,18.16,18.16,0,0,1-6.32-3.59,16.72,16.72,0,0,1-4.17-5.84,21.59,21.59,0,0,1-1.7-8h10.16a14,14,0,0,0,.67,4.22,9.34,9.34,0,0,0,1.76,3.17,8.14,8.14,0,0,0,3.24,2.27,12.31,12.31,0,0,0,4.49.75,9.87,9.87,0,0,0,4.24-.88,9.75,9.75,0,0,0,3.23-2.39,11.16,11.16,0,0,0,2-3.59,13.1,13.1,0,0,0,.74-4.39V892Z"/><path class="cls-9" d="M1083.29,933.64a9.78,9.78,0,0,0-2.48-2.94,20.3,20.3,0,0,0-4-2.2,40.24,40.24,0,0,0-5.1-1.79,46.53,46.53,0,0,1-8-3,28.7,28.7,0,0,1-6.2-4,17.14,17.14,0,0,1-4-5.15,14.26,14.26,0,0,1-1.45-6.48,14.65,14.65,0,0,1,1.68-7,16.75,16.75,0,0,1,4.54-5.35,20.68,20.68,0,0,1,6.65-3.34,27.39,27.39,0,0,1,8-1.15,24.56,24.56,0,0,1,8.29,1.36,21,21,0,0,1,6.7,3.8,18.28,18.28,0,0,1,4.52,5.9,17.23,17.23,0,0,1,1.66,7.58h-10a14.91,14.91,0,0,0-1-4.22,9.92,9.92,0,0,0-2.17-3.3,10.45,10.45,0,0,0-3.46-2.12,13.27,13.27,0,0,0-4.68-.77,14.22,14.22,0,0,0-4.27.61,10.63,10.63,0,0,0-3.38,1.7,7.83,7.83,0,0,0-3,6.3,6.72,6.72,0,0,0,1.09,3.67,9.88,9.88,0,0,0,2.82,2.75,21.79,21.79,0,0,0,4.13,2.06c1.55.59,3.19,1.13,4.89,1.63a48.63,48.63,0,0,1,6.32,2.29,29.27,29.27,0,0,1,5.69,3.3,19.26,19.26,0,0,1,5.19,5.81,15.36,15.36,0,0,1,2,7.8,14.77,14.77,0,0,1-1.7,7.18,15.36,15.36,0,0,1-4.55,5.16,20.51,20.51,0,0,1-6.72,3.21,29.56,29.56,0,0,1-8.07,1.07,28.68,28.68,0,0,1-8.86-1.4,22.53,22.53,0,0,1-7.6-4.1,19,19,0,0,1-4.72-5.92,17.28,17.28,0,0,1-1.79-7.81h10.08a13.62,13.62,0,0,0,1.2,4.89,9.38,9.38,0,0,0,2.71,3.43,10.94,10.94,0,0,0,4,2.05,17.59,17.59,0,0,0,5,.68,16.46,16.46,0,0,0,4.31-.55,10.17,10.17,0,0,0,3.46-1.64,7.94,7.94,0,0,0,2.29-2.6,7.31,7.31,0,0,0,.86-3.57A7.82,7.82,0,0,0,1083.29,933.64Z"/><path class="cls-9" d="M1175,918.19,1183.4,892H1196v61.14h-9.5V932.42l.59-27.29-9.4,29.18h-5.25l-8.53-28.18.55,26.29v20.75H1155V892h12.51Z"/><path class="cls-9" d="M1217.79,925.75v19.1h29.52v8.32h-39.64V892h39.43v8.35h-29.31V917.6h25.28v8.15Z"/><path class="cls-9" d="M1258.27,892h15.12a29.6,29.6,0,0,1,7.43.9,26.28,26.28,0,0,1,6.34,2.5,21.94,21.94,0,0,1,5.52,4.11,24.68,24.68,0,0,1,4.06,5.55,30.24,30.24,0,0,1,2.6,7,34.35,34.35,0,0,1,.92,8.14V925a34.39,34.39,0,0,1-.86,7.87,28.72,28.72,0,0,1-2.45,6.79,25.75,25.75,0,0,1-3.76,5.41,24.09,24.09,0,0,1-4.89,4.16,25.07,25.07,0,0,1-6.7,2.9,29.79,29.79,0,0,1-7.88,1h-15.45Zm10.21,53h5.24a17.84,17.84,0,0,0,4.94-.65,13.64,13.64,0,0,0,7.35-5,17.55,17.55,0,0,0,2.37-4.39,24.52,24.52,0,0,0,1.22-4.58A31.6,31.6,0,0,0,1290,925v-4.87a31.37,31.37,0,0,0-.42-5.25,24.52,24.52,0,0,0-1.22-4.58,17.7,17.7,0,0,0-2.69-4.64,13.92,13.92,0,0,0-4-3.38,14.83,14.83,0,0,0-3.78-1.49,20.2,20.2,0,0,0-4.53-.56h-4.91Z"/><path class="cls-9" d="M1372.78,953.17h-10.07V892h20.45a26.52,26.52,0,0,1,8.5,1.38,19.94,19.94,0,0,1,6.7,3.82,17,17,0,0,1,4.36,6,19.38,19.38,0,0,1,1.56,7.93,18.29,18.29,0,0,1-1.56,7.67,17,17,0,0,1-4.36,5.86,19.94,19.94,0,0,1-6.7,3.82,26,26,0,0,1-8.5,1.34h-10.38Zm10.38-31.54a13.4,13.4,0,0,0,4.59-.82,10.11,10.11,0,0,0,3.47-2.16,9.19,9.19,0,0,0,2.16-3.28,11.24,11.24,0,0,0,.74-4.11,12.71,12.71,0,0,0-.74-4.43,9.78,9.78,0,0,0-2.16-3.47,9.62,9.62,0,0,0-3.47-2.26,12.94,12.94,0,0,0-4.59-.84h-10.38v21.37Z"/><path class="cls-9" d="M1424.06,939.1l-4.16,14.07h-10.5L1429.31,892h8.94l19.57,61.14h-10.46l-4.11-14.07Zm16.71-8.65-7-24.19-7.14,24.19Z"/><path class="cls-9" d="M1496.16,933.64a9.93,9.93,0,0,0-2.48-2.94,20.3,20.3,0,0,0-4-2.2,40.8,40.8,0,0,0-5.1-1.79,46.65,46.65,0,0,1-8-3,28.87,28.87,0,0,1-6.19-4,17,17,0,0,1-4-5.15,14.14,14.14,0,0,1-1.45-6.48,14.65,14.65,0,0,1,1.68-7,16.85,16.85,0,0,1,4.53-5.35,20.84,20.84,0,0,1,6.66-3.34,27.34,27.34,0,0,1,8-1.15,24.56,24.56,0,0,1,8.29,1.36,21.13,21.13,0,0,1,6.7,3.8,18.42,18.42,0,0,1,4.52,5.9,17.23,17.23,0,0,1,1.65,7.58h-10a14.58,14.58,0,0,0-1-4.22,10.05,10.05,0,0,0-2.16-3.3,10.56,10.56,0,0,0-3.46-2.12,13.29,13.29,0,0,0-4.69-.77,14.1,14.1,0,0,0-4.26.61,10.63,10.63,0,0,0-3.38,1.7,7.92,7.92,0,0,0-2.22,2.73,7.75,7.75,0,0,0-.8,3.57,6.64,6.64,0,0,0,1.09,3.67,10,10,0,0,0,2.81,2.75,21.89,21.89,0,0,0,4.14,2.06q2.33.88,4.89,1.63a49.16,49.16,0,0,1,6.32,2.29,29.57,29.57,0,0,1,5.69,3.3,19.4,19.4,0,0,1,5.19,5.81,15.36,15.36,0,0,1,2,7.8,14.77,14.77,0,0,1-1.7,7.18,15.39,15.39,0,0,1-4.56,5.16,20.32,20.32,0,0,1-6.72,3.21,29.44,29.44,0,0,1-8.06,1.07,28.63,28.63,0,0,1-8.86-1.4,22.53,22.53,0,0,1-7.6-4.1,19,19,0,0,1-4.72-5.92,17.16,17.16,0,0,1-1.79-7.81h10.08a13.62,13.62,0,0,0,1.2,4.89,9.36,9.36,0,0,0,2.7,3.43,11,11,0,0,0,4,2.05,17.71,17.71,0,0,0,5,.68,16.46,16.46,0,0,0,4.31-.55,10.26,10.26,0,0,0,3.46-1.64,8.06,8.06,0,0,0,2.29-2.6,7.31,7.31,0,0,0,.86-3.57A7.82,7.82,0,0,0,1496.16,933.64Z"/><path class="cls-9" d="M1547.77,933.64a9.93,9.93,0,0,0-2.48-2.94,20.3,20.3,0,0,0-4-2.2,41.37,41.37,0,0,0-5.1-1.79,46.33,46.33,0,0,1-8-3,28.62,28.62,0,0,1-6.19-4,17,17,0,0,1-4-5.15,14.14,14.14,0,0,1-1.45-6.48,14.65,14.65,0,0,1,1.68-7,16.85,16.85,0,0,1,4.53-5.35,20.73,20.73,0,0,1,6.66-3.34,27.34,27.34,0,0,1,8-1.15,24.6,24.6,0,0,1,8.29,1.36,21.24,21.24,0,0,1,6.7,3.8,18.25,18.25,0,0,1,4.51,5.9,17.09,17.09,0,0,1,1.66,7.58h-10a14.58,14.58,0,0,0-1-4.22,10.05,10.05,0,0,0-2.16-3.3,10.5,10.5,0,0,0-3.47-2.12,13.19,13.19,0,0,0-4.68-.77,14.1,14.1,0,0,0-4.26.61,10.63,10.63,0,0,0-3.38,1.7,7.76,7.76,0,0,0-3,6.3,6.64,6.64,0,0,0,1.09,3.67,10,10,0,0,0,2.81,2.75,21.6,21.6,0,0,0,4.14,2.06q2.32.88,4.89,1.63a49.72,49.72,0,0,1,6.32,2.29,29.57,29.57,0,0,1,5.69,3.3,19.53,19.53,0,0,1,5.19,5.81,15.36,15.36,0,0,1,2,7.8,14.77,14.77,0,0,1-1.7,7.18,15.49,15.49,0,0,1-4.56,5.16,20.32,20.32,0,0,1-6.72,3.21,29.49,29.49,0,0,1-8.06,1.07,28.63,28.63,0,0,1-8.86-1.4,22.44,22.44,0,0,1-7.6-4.1,19.16,19.16,0,0,1-4.73-5.92,17.28,17.28,0,0,1-1.78-7.81h10.08a13.83,13.83,0,0,0,1.19,4.89,9.38,9.38,0,0,0,2.71,3.43,11,11,0,0,0,4,2.05,17.71,17.71,0,0,0,5,.68,16.38,16.38,0,0,0,4.3-.55,10.22,10.22,0,0,0,3.47-1.64,8.06,8.06,0,0,0,2.29-2.6,7.31,7.31,0,0,0,.86-3.57A7.93,7.93,0,0,0,1547.77,933.64Z"/><path class="cls-9" d="M1605.92,892v8.35h-13.05v44.47h13.05v8.32h-36v-8.32h12.76V900.38H1569.9V892Z"/><path class="cls-9" d="M1660.79,933.81a36.32,36.32,0,0,1-1.87,6.51,27.45,27.45,0,0,1-3.23,5.64,21,21,0,0,1-4.46,4.43,20.35,20.35,0,0,1-5.39,2.65,22.25,22.25,0,0,1-13.19-.06,19.14,19.14,0,0,1-5.44-2.84,19.83,19.83,0,0,1-4.26-4.45,27.29,27.29,0,0,1-3-5.71,32.69,32.69,0,0,1-1.77-6.36,40.66,40.66,0,0,1-.58-7v-8.06a40.69,40.69,0,0,1,.63-7.23,33.23,33.23,0,0,1,1.89-6.59,26.8,26.8,0,0,1,3-5.48,20.24,20.24,0,0,1,4.22-4.35,18,18,0,0,1,5.35-2.79,23,23,0,0,1,13.34,0,19.45,19.45,0,0,1,5.5,2.82,20.29,20.29,0,0,1,4.24,4.24,25.51,25.51,0,0,1,3,5.33,31.27,31.27,0,0,1,2,6.66,40.16,40.16,0,0,1,.67,7.37v8.06A38.78,38.78,0,0,1,1660.79,933.81ZM1651,914a26.55,26.55,0,0,0-.77-4.24,20.16,20.16,0,0,0-1.66-4.22,12.27,12.27,0,0,0-2.5-3.26,10,10,0,0,0-3-1.85,10.41,10.41,0,0,0-3.82-.67,10,10,0,0,0-3.7.65,9.07,9.07,0,0,0-2.85,1.79,12.43,12.43,0,0,0-2.48,3.29,18.12,18.12,0,0,0-1.56,4.27A30.48,30.48,0,0,0,1628,914c-.15,1.5-.23,3-.23,4.51v8.15q0,2.22.21,4.41a29.44,29.44,0,0,0,.71,4.2,21.24,21.24,0,0,0,1.49,4.22,12,12,0,0,0,2.29,3.29,10,10,0,0,0,3,2,9.87,9.87,0,0,0,3.93.73,10.13,10.13,0,0,0,3.89-.71,9.49,9.49,0,0,0,3-1.93,11.83,11.83,0,0,0,2.45-3.3,19.53,19.53,0,0,0,1.58-4.22,30.67,30.67,0,0,0,.73-4.22c.16-1.47.25-3,.28-4.47v-8.15C1651.25,917,1651.16,915.47,1651,914Z"/><path class="cls-9" d="M1701,953.17l-19.86-42.08,0,42.08h-10.21V892h10.25l19.74,41.9.08-41.9h10.16v61.14Z"/></g></svg>
